name rise30.9205peak61.366fall85.3838.mot
datacolumns 19
datarows 24
range 17.63826400000000 17.67660400000000
endheader
time	ground_force1_vx	ground_force1_vy	ground_force1_vz	ground_force1_px	ground_force1_py	ground_force1_pz	ground_force2_vx	ground_force2_vy	ground_force2_vz	ground_force2_px	ground_force2_py	ground_force2_pz	ground_torque1_x	ground_torque1_y	ground_torque1_z	ground_torque2_x	ground_torque2_y	ground_torque2_z	
17.63826400000000	4.17704700000000	673.28948100000002	40.56503500000000	0.22838300000000	0.00000000000000	0.12012500000000	0.00000000000000	0.00000000000000	0.00000000000000	0.00000000000000	0.00000000000000	0.00000000000000	0.00000000000000	16.67819400000000	0.00000000000000	0.00000000000000	0.00000000000000	0.00000000000000	
17.63993600000000	3.69995500000000	674.50601800000004	40.61931700000000	0.22759500000000	0.00000000000000	0.12014200000000	0.00000000000000	0.00000000000000	0.00000000000000	0.00000000000000	0.00000000000000	0.00000000000000	0.00000000000000	16.76470600000000	0.00000000000000	0.00000000000000	0.00000000000000	0.00000000000000	
17.64161200000000	3.21390600000000	675.77946799999995	40.67723500000000	0.22678700000000	0.00000000000000	0.12016100000000	0.00000000000000	0.00000000000000	0.00000000000000	0.00000000000000	0.00000000000000	0.00000000000000	0.00000000000000	16.85448700000000	0.00000000000000	0.00000000000000	0.00000000000000	0.00000000000000	
17.64327000000000	2.71856400000000	677.10811899999999	40.73871400000000	0.22595600000000	0.00000000000000	0.12018000000000	0.00000000000000	0.00000000000000	0.00000000000000	0.00000000000000	0.00000000000000	0.00000000000000	0.00000000000000	16.94747600000000	0.00000000000000	0.00000000000000	0.00000000000000	0.00000000000000	
17.64493700000000	2.21362400000000	678.49028999999996	40.80368500000000	0.22510400000000	0.00000000000000	0.12020100000000	0.00000000000000	0.00000000000000	0.00000000000000	0.00000000000000	0.00000000000000	0.00000000000000	0.00000000000000	17.04361400000000	0.00000000000000	0.00000000000000	0.00000000000000	0.00000000000000	
17.64659800000000	1.69880600000000	679.92434000000003	40.87208800000000	0.22422800000000	0.00000000000000	0.12022200000000	0.00000000000000	0.00000000000000	0.00000000000000	0.00000000000000	0.00000000000000	0.00000000000000	0.00000000000000	17.14285000000000	0.00000000000000	0.00000000000000	0.00000000000000	0.00000000000000	
17.64827000000000	1.17386100000000	681.40866900000003	40.94387000000000	0.22332800000000	0.00000000000000	0.12024500000000	0.00000000000000	0.00000000000000	0.00000000000000	0.00000000000000	0.00000000000000	0.00000000000000	0.00000000000000	17.24513600000000	0.00000000000000	0.00000000000000	0.00000000000000	0.00000000000000	
17.64993400000000	0.63857300000000	682.94171900000003	41.01898500000000	0.22240500000000	0.00000000000000	0.12026900000000	0.00000000000000	0.00000000000000	0.00000000000000	0.00000000000000	0.00000000000000	0.00000000000000	0.00000000000000	17.35042800000000	0.00000000000000	0.00000000000000	0.00000000000000	0.00000000000000	
17.65159800000000	0.09275600000000	684.52198299999998	41.09739500000000	0.22145900000000	0.00000000000000	0.12029400000000	0.00000000000000	0.00000000000000	0.00000000000000	0.00000000000000	0.00000000000000	0.00000000000000	0.00000000000000	17.45868800000000	0.00000000000000	0.00000000000000	0.00000000000000	0.00000000000000	
17.65326600000000	-0.46374200000000	686.14800500000001	41.17906700000000	0.22048800000000	0.00000000000000	0.12032100000000	0.00000000000000	0.00000000000000	0.00000000000000	0.00000000000000	0.00000000000000	0.00000000000000	0.00000000000000	17.56987800000000	0.00000000000000	0.00000000000000	0.00000000000000	0.00000000000000	
17.65493500000000	-1.03104000000000	687.81837800000005	41.26397400000000	0.21949400000000	0.00000000000000	0.12034800000000	0.00000000000000	0.00000000000000	0.00000000000000	0.00000000000000	0.00000000000000	0.00000000000000	0.00000000000000	17.68396400000000	0.00000000000000	0.00000000000000	0.00000000000000	0.00000000000000	
17.65660000000000	-1.60922000000000	689.53175099999999	41.35209600000000	0.21847600000000	0.00000000000000	0.12037700000000	0.00000000000000	0.00000000000000	0.00000000000000	0.00000000000000	0.00000000000000	0.00000000000000	0.00000000000000	17.80091300000000	0.00000000000000	0.00000000000000	0.00000000000000	0.00000000000000	
17.65826300000000	-2.19833000000000	691.28682800000001	41.44341700000000	0.21743700000000	0.00000000000000	0.12040600000000	0.00000000000000	0.00000000000000	0.00000000000000	0.00000000000000	0.00000000000000	0.00000000000000	0.00000000000000	17.92069500000000	0.00000000000000	0.00000000000000	0.00000000000000	0.00000000000000	
17.65993800000000	-2.79838000000000	693.08236699999998	41.53792600000000	0.21637500000000	0.00000000000000	0.12043600000000	0.00000000000000	0.00000000000000	0.00000000000000	0.00000000000000	0.00000000000000	0.00000000000000	0.00000000000000	18.04327900000000	0.00000000000000	0.00000000000000	0.00000000000000	0.00000000000000	
17.66161600000000	-3.40934700000000	694.91718400000002	41.63561700000000	0.21529200000000	0.00000000000000	0.12046800000000	0.00000000000000	0.00000000000000	0.00000000000000	0.00000000000000	0.00000000000000	0.00000000000000	0.00000000000000	18.16863300000000	0.00000000000000	0.00000000000000	0.00000000000000	0.00000000000000	
17.66326900000000	-4.03116800000000	696.79014600000005	41.73648800000000	0.21418900000000	0.00000000000000	0.12050000000000	0.00000000000000	0.00000000000000	0.00000000000000	0.00000000000000	0.00000000000000	0.00000000000000	0.00000000000000	18.29672700000000	0.00000000000000	0.00000000000000	0.00000000000000	0.00000000000000	
17.66493200000000	-4.66374400000000	698.70017800000005	41.84054300000000	0.21306600000000	0.00000000000000	0.12053300000000	0.00000000000000	0.00000000000000	0.00000000000000	0.00000000000000	0.00000000000000	0.00000000000000	0.00000000000000	18.42752800000000	0.00000000000000	0.00000000000000	0.00000000000000	0.00000000000000	
17.66660600000000	-5.30694100000000	700.64625500000000	41.94778800000000	0.21192600000000	0.00000000000000	0.12056600000000	0.00000000000000	0.00000000000000	0.00000000000000	0.00000000000000	0.00000000000000	0.00000000000000	0.00000000000000	18.56100000000000	0.00000000000000	0.00000000000000	0.00000000000000	0.00000000000000	
17.66826400000000	-5.96058700000000	702.62740399999996	42.05823400000000	0.21076900000000	0.00000000000000	0.12060000000000	0.00000000000000	0.00000000000000	0.00000000000000	0.00000000000000	0.00000000000000	0.00000000000000	0.00000000000000	18.69710600000000	0.00000000000000	0.00000000000000	0.00000000000000	0.00000000000000	
17.66993200000000	-6.62447400000000	704.64269899999999	42.17189600000000	0.20959600000000	0.00000000000000	0.12063500000000	0.00000000000000	0.00000000000000	0.00000000000000	0.00000000000000	0.00000000000000	0.00000000000000	0.00000000000000	18.83580500000000	0.00000000000000	0.00000000000000	0.00000000000000	0.00000000000000	
17.67160500000000	-7.29835900000000	706.69126000000006	42.28879000000000	0.20840900000000	0.00000000000000	0.12067000000000	0.00000000000000	0.00000000000000	0.00000000000000	0.00000000000000	0.00000000000000	0.00000000000000	0.00000000000000	18.97705300000000	0.00000000000000	0.00000000000000	0.00000000000000	0.00000000000000	
17.67327000000000	-7.98196200000000	708.77224899999999	42.40893900000000	0.20721000000000	0.00000000000000	0.12070500000000	0.00000000000000	0.00000000000000	0.00000000000000	0.00000000000000	0.00000000000000	0.00000000000000	0.00000000000000	19.12079900000000	0.00000000000000	0.00000000000000	0.00000000000000	0.00000000000000	
17.67493300000000	-8.67497100000000	710.88486699999999	42.53236800000000	0.20600000000000	0.00000000000000	0.12074000000000	0.00000000000000	0.00000000000000	0.00000000000000	0.00000000000000	0.00000000000000	0.00000000000000	0.00000000000000	19.26699000000000	0.00000000000000	0.00000000000000	0.00000000000000	0.00000000000000	
17.67660400000000	-9.37703900000000	713.02834900000005	42.65910500000000	0.20478000000000	0.00000000000000	0.12077500000000	0.00000000000000	0.00000000000000	0.00000000000000	0.00000000000000	0.00000000000000	0.00000000000000	0.00000000000000	19.41556700000000	0.00000000000000	0.00000000000000	0.00000000000000	0.00000000000000	
